<svg width="318" height="511" xmlns="http://www.w3.org/2000/svg" xmlns:xlink="http://www.w3.org/1999/xlink" overflow="hidden"><defs><clipPath id="clip0"><rect x="498" y="66" width="318" height="511"/></clipPath></defs><g clip-path="url(#clip0)" transform="translate(-498 -66)"><rect x="555" y="153" width="170" height="414" stroke="#000000" stroke-width="2" stroke-miterlimit="8" fill="none"/><path d="M675.5 202.5 713.295 202.5" stroke="#000000" stroke-width="1.33333" stroke-miterlimit="8" fill="none" fill-rule="evenodd"/><path d="M675.5 164.5 675.5 202.295" stroke="#000000" stroke-width="1.33333" stroke-miterlimit="8" fill="none" fill-rule="evenodd"/><path d="M675.5 518.5 675.5 556.295" stroke="#000000" stroke-width="1.33333" stroke-miterlimit="8" fill="none" fill-rule="evenodd"/><path d="M713.295 518.5 675.5 518.5" stroke="#000000" stroke-width="1.33333" stroke-miterlimit="8" fill="none" fill-rule="evenodd"/><path d="M605.5 202.295 605.5 164.5" stroke="#000000" stroke-width="1.33333" stroke-miterlimit="8" fill="none" fill-rule="evenodd"/><path d="M567.5 202.5 605.295 202.5" stroke="#000000" stroke-width="1.33333" stroke-miterlimit="8" fill="none" fill-rule="evenodd"/><path d="M605.295 518.5 567.5 518.5" stroke="#000000" stroke-width="1.33333" stroke-miterlimit="8" fill="none" fill-rule="evenodd"/><path d="M605.5 556.295 605.5 518.5" stroke="#000000" stroke-width="1.33333" stroke-miterlimit="8" fill="none" fill-rule="evenodd"/><path d="M725 153 800.591 153" stroke="#000000" stroke-width="2" stroke-miterlimit="8" fill="none" fill-rule="evenodd"/><path d="M726 567 801.591 567" stroke="#000000" stroke-width="2" stroke-miterlimit="8" fill="none" fill-rule="evenodd"/><path d="M555 77 555 152.591" stroke="#000000" stroke-width="2" stroke-miterlimit="8" fill="none" fill-rule="evenodd"/><path d="M725 77 725 152.591" stroke="#000000" stroke-width="2" stroke-miterlimit="8" fill="none" fill-rule="evenodd"/><path d="M779.167 160.166 779.167 560.892 777.833 560.892 777.833 160.166ZM774.5 161.5 778.5 153.5 782.5 161.5ZM782.5 559.558 778.5 567.558 774.5 559.558Z"/><path d="M719 202 764.354 202" stroke="#000000" stroke-width="2" stroke-miterlimit="8" fill="none" fill-rule="evenodd"/><path d="M718 518 763.354 518" stroke="#000000" stroke-width="2" stroke-miterlimit="8" fill="none" fill-rule="evenodd"/><path d="M605 114 605 159.354" stroke="#000000" stroke-width="2" stroke-miterlimit="8" fill="none" fill-rule="evenodd"/><path d="M675 115 675 160.354" stroke="#000000" stroke-width="2" stroke-miterlimit="8" fill="none" fill-rule="evenodd"/><path d="M742.167 525.167 742.167 562.368 740.833 562.368 740.833 525.167ZM737.5 526.5 741.5 518.5 745.5 526.5ZM745.5 561.035 741.5 569.035 737.5 561.035Z"/><path d="M742.167 160.167 742.167 197.368 740.833 197.368 740.833 160.167ZM737.5 161.5 741.5 153.5 745.5 161.5ZM745.5 196.035 741.5 204.035 737.5 196.035Z"/><path d="M719.396 105.167 562.167 105.167 562.167 103.833 719.396 103.833ZM718.063 100.5 726.063 104.5 718.063 108.5ZM563.5 108.5 555.5 104.5 563.5 100.5Z"/><path d="M6.66667-0.666652 42.5875-0.666576 42.5875 0.666757 6.66667 0.666681ZM7.99999 4.00002 0 0 8.00001-3.99998ZM41.2542-3.99991 49.2542 0.000104987 41.2542 4.00009Z" transform="matrix(-1 0 0 1 604.754 138.5)"/><path d="M6.66667-0.666652 42.5875-0.666576 42.5875 0.666757 6.66667 0.666681ZM7.99999 4.00002 0 0 8.00001-3.99998ZM41.2542-3.99991 49.2542 0.000104987 41.2542 4.00009Z" transform="matrix(-1 0 0 1 724.754 138.5)"/><text font-family="KaiTi,KaiTi_MSFontService,sans-serif" font-weight="400" font-size="21" transform="translate(616.057 95)">宽度</text><text font-family="KaiTi,KaiTi_MSFontService,sans-serif" font-weight="400" font-size="21" transform="translate(682.104 131)">右页边距</text><text font-family="KaiTi,KaiTi_MSFontService,sans-serif" font-weight="400" font-size="21" transform="translate(511.542 133)">左页边距</text><text font-family="KaiTi,KaiTi_MSFontService,sans-serif" font-weight="400" font-size="21" writing-mode="tb-rl" transform="translate(784.336 338)" x="7.54688" y="2.95312">高度</text><text font-family="KaiTi,KaiTi_MSFontService,sans-serif" font-weight="400" font-size="21" writing-mode="tb-rl" transform="translate(752.369 156)" x="7.54688" y="2.95312">上页边距</text><text font-family="KaiTi,KaiTi_MSFontService,sans-serif" font-weight="400" font-size="21" writing-mode="tb-rl" transform="translate(751.071 477)" x="7.54688" y="2.95312">下页边距</text></g></svg>