<svg width="507" height="513" xmlns="http://www.w3.org/2000/svg" xmlns:xlink="http://www.w3.org/1999/xlink" overflow="hidden"><defs><clipPath id="clip0"><rect x="438" y="107" width="507" height="513"/></clipPath></defs><g clip-path="url(#clip0)" transform="translate(-438 -107)"><rect x="495" y="195" width="359" height="414" stroke="#000000" stroke-width="2" stroke-miterlimit="8" fill="none"/><path d="M804.5 245.5 842.295 245.5" stroke="#000000" stroke-width="1.33333" stroke-miterlimit="8" fill="none" fill-rule="evenodd"/><path d="M804.5 207.5 804.5 245.295" stroke="#000000" stroke-width="1.33333" stroke-miterlimit="8" fill="none" fill-rule="evenodd"/><path d="M804.5 560.5 804.5 598.295" stroke="#000000" stroke-width="1.33333" stroke-miterlimit="8" fill="none" fill-rule="evenodd"/><path d="M842.295 560.5 804.5 560.5" stroke="#000000" stroke-width="1.33333" stroke-miterlimit="8" fill="none" fill-rule="evenodd"/><path d="M545.5 245.295 545.5 207.5" stroke="#000000" stroke-width="1.33333" stroke-miterlimit="8" fill="none" fill-rule="evenodd"/><path d="M507.5 245.5 545.295 245.5" stroke="#000000" stroke-width="1.33333" stroke-miterlimit="8" fill="none" fill-rule="evenodd"/><path d="M545.295 560.5 507.5 560.5" stroke="#000000" stroke-width="1.33333" stroke-miterlimit="8" fill="none" fill-rule="evenodd"/><path d="M545.5 598.295 545.5 560.5" stroke="#000000" stroke-width="1.33333" stroke-miterlimit="8" fill="none" fill-rule="evenodd"/><path d="M855 195 930.591 195" stroke="#000000" stroke-width="2" stroke-miterlimit="8" fill="none" fill-rule="evenodd"/><path d="M856 609 931.591 609" stroke="#000000" stroke-width="2" stroke-miterlimit="8" fill="none" fill-rule="evenodd"/><path d="M495 120 495 195.591" stroke="#000000" stroke-width="2" stroke-miterlimit="8" fill="none" fill-rule="evenodd"/><path d="M855 120 855 195.591" stroke="#000000" stroke-width="2" stroke-miterlimit="8" fill="none" fill-rule="evenodd"/><path d="M908.167 202.166 908.167 602.892 906.833 602.892 906.833 202.166ZM903.5 203.5 907.5 195.5 911.5 203.5ZM911.5 601.558 907.5 609.558 903.5 601.558Z"/><path d="M848 245 893.354 245" stroke="#000000" stroke-width="2" stroke-miterlimit="8" fill="none" fill-rule="evenodd"/><path d="M847 560 892.354 560" stroke="#000000" stroke-width="2" stroke-miterlimit="8" fill="none" fill-rule="evenodd"/><path d="M545 157 545 202.354" stroke="#000000" stroke-width="2" stroke-miterlimit="8" fill="none" fill-rule="evenodd"/><path d="M804 158 804 203.354" stroke="#000000" stroke-width="2" stroke-miterlimit="8" fill="none" fill-rule="evenodd"/><path d="M872.167 567.167 872.167 604.368 870.833 604.368 870.833 567.167ZM867.5 568.5 871.5 560.5 875.5 568.5ZM875.5 603.035 871.5 611.035 867.5 603.035Z"/><path d="M872.167 202.167 872.167 239.368 870.833 239.368 870.833 202.167ZM867.5 203.5 871.5 195.5 875.5 203.5ZM875.5 238.035 871.5 246.035 867.5 238.035Z"/><path d="M848.267 148.167 502.166 148.167 502.166 146.833 848.267 146.833ZM846.933 143.5 854.933 147.5 846.933 151.5ZM503.5 151.5 495.5 147.5 503.5 143.5Z"/><path d="M6.66667-0.666652 42.5875-0.666576 42.5875 0.666757 6.66667 0.666681ZM7.99999 4.00002 0 0 8.00001-3.99998ZM41.2542-3.99991 49.2542 0.000104987 41.2542 4.00009Z" transform="matrix(-1 0 0 1 544.754 180.5)"/><path d="M6.66667-0.666652 42.5875-0.666576 42.5875 0.666757 6.66667 0.666681ZM7.99999 4.00002 0 0 8.00001-3.99998ZM41.2542-3.99991 49.2542 0.000104987 41.2542 4.00009Z" transform="matrix(-1 0 0 1 853.754 180.5)"/><text font-family="KaiTi,KaiTi_MSFontService,sans-serif" font-weight="400" font-size="21" transform="translate(653.168 136)">宽度</text><text font-family="KaiTi,KaiTi_MSFontService,sans-serif" font-weight="400" font-size="21" transform="translate(811.265 173)">右页边距</text><text font-family="KaiTi,KaiTi_MSFontService,sans-serif" font-weight="400" font-size="21" transform="translate(451.852 176)">左页边距</text><text font-family="KaiTi,KaiTi_MSFontService,sans-serif" font-weight="400" font-size="21" writing-mode="tb-rl" transform="translate(913.814 381)" x="7.54688" y="2.95312">高度</text><text font-family="KaiTi,KaiTi_MSFontService,sans-serif" font-weight="400" font-size="21" writing-mode="tb-rl" transform="translate(881.688 199)" x="7.54688" y="2.95312">上页边距</text><text font-family="KaiTi,KaiTi_MSFontService,sans-serif" font-weight="400" font-size="21" writing-mode="tb-rl" transform="translate(880.555 520)" x="7.54688" y="2.95312">下页边距</text><path d="M675 195 675 609.058" stroke="#000000" stroke-width="2" stroke-miterlimit="8" stroke-dasharray="8 6" fill="none" fill-rule="evenodd"/><path d="M680.5 245.5 691.839 245.5" stroke="#000000" stroke-width="1.33333" stroke-miterlimit="8" fill="none" fill-rule="evenodd"/><path d="M692.5 207.5 692.5 245.295" stroke="#000000" stroke-width="1.33333" stroke-miterlimit="8" fill="none" fill-rule="evenodd"/><path d="M653.5 245.295 653.5 207.5" stroke="#000000" stroke-width="1.33333" stroke-miterlimit="8" fill="none" fill-rule="evenodd"/><path d="M653.5 245.5 664.839 245.5" stroke="#000000" stroke-width="1.33333" stroke-miterlimit="8" fill="none" fill-rule="evenodd"/><path d="M664.839 561.5 653.5 561.5" stroke="#000000" stroke-width="1.33333" stroke-miterlimit="8" fill="none" fill-rule="evenodd"/><path d="M653.5 599.295 653.5 561.5" stroke="#000000" stroke-width="1.33333" stroke-miterlimit="8" fill="none" fill-rule="evenodd"/><path d="M692.5 561.5 692.5 599.295" stroke="#000000" stroke-width="1.33333" stroke-miterlimit="8" fill="none" fill-rule="evenodd"/><path d="M692.839 561.5 681.5 561.5" stroke="#000000" stroke-width="1.33333" stroke-miterlimit="8" fill="none" fill-rule="evenodd"/><path d="M653 253 653 290.426" stroke="#000000" stroke-width="2" stroke-miterlimit="8" fill="none" fill-rule="evenodd"/><path d="M693 515 693 552.426" stroke="#000000" stroke-width="2" stroke-miterlimit="8" fill="none" fill-rule="evenodd"/><path d="M682.167 533.833 687.414 533.833 687.414 535.167 682.167 535.167ZM683.5 538.5 675.5 534.5 683.5 530.5ZM686.08 530.5 694.08 534.5 686.08 538.5Z"/><path d="M694.5 534.5 746.846 534.5" stroke="#000000" stroke-width="1.33333" stroke-miterlimit="8" fill="none" fill-rule="evenodd"/><path d="M660.167 270.833 665.414 270.833 665.414 272.167 660.167 272.167ZM661.5 275.5 653.5 271.5 661.5 267.5ZM664.08 267.5 672.08 271.5 664.08 275.5Z"/><path d="M600.5 271.5 652.846 271.5" stroke="#000000" stroke-width="1.33333" stroke-miterlimit="8" fill="none" fill-rule="evenodd"/><text font-family="KaiTi,KaiTi_MSFontService,sans-serif" font-weight="400" font-size="21" transform="translate(700.401 525)">前页边距</text><text font-family="KaiTi,KaiTi_MSFontService,sans-serif" font-weight="400" font-size="21" transform="translate(562.736 264)">后页边距</text><path d="M682.167 385.833 847.653 385.833 847.653 387.167 682.167 387.167ZM683.5 390.5 675.5 386.5 683.5 382.5ZM846.319 382.5 854.319 386.5 846.319 390.5Z"/><text font-family="KaiTi,KaiTi_MSFontService,sans-serif" font-weight="400" font-size="21" transform="translate(712.862 379)">折页宽度</text></g></svg>